<?xml version="1.0" encoding="UTF-8"?><svg id="Ebene_2" xmlns="http://www.w3.org/2000/svg" viewBox="0 0 122.07 82.88"><defs><style>.cls-1{stroke-linecap:round;}.cls-1,.cls-2{fill:none;stroke:#0a0a0b;stroke-miterlimit:10;stroke-width:12px;}</style></defs><g id="Ebene_1-2"><path id="Pfeilkopf" class="cls-1" d="M91.07,17.01l21.61-10.77c.47-.34,1.05-.3,1.46-.02.33.22.56.6.56,1.06l1.37,23.42"/><path id="W" class="cls-2" d="M110.95,11.21c-14.61,23.37-18.89,38.08-33.56,61.6-1.62,2.6-4.61,4.37-7.65,4.03-1.19-.13-2.4-.45-3.67-1.24-7.21-4.5-5.65-19.22,4.98-42.7,3.55-7.83.99-14.03-2.86-16.39-2.16-1.33-5.36-1.62-8.29-.12-4.84,2.48-6.39,8.56-6.98,10.68-3.4,12.27-.2,49.49-16.03,48.72-10.63-.52-17.85-24.59-17.85-24.59-2.34-6.31-4.6-12.78-5.66-18.52"/><path id="Schlaufe" class="cls-2" d="M13.37,32.68c-1.36-7.38-.74-13.57,4.26-16.73h0c6.17-3.4,13.54,2.23,12.15,9.13-.74,3.68-2.69,7.58-5.46,10.99"/><path id="AnfangSchlaufe" class="cls-2" d="M24.33,36.07c-3.9,4.81-9.43,8.68-15.5,9.66l-7.74,1.43"/></g></svg>